<svg width="3500" height="975" viewBox="0 0 3500 975" fill="none" xmlns="http://www.w3.org/2000/svg">
<g filter="url(#filter0_d_1_2)">
<path d="M185.848 101V801L349.382 693.578V346.035" stroke="#107AFC" stroke-width="77"/>
<path d="M875.26 102L875.26 802L711.726 694.578L711.726 347.035" stroke="#107AFC" stroke-width="77"/>
<path d="M872.992 142.769C872.992 142.769 532.678 93.0729 532.678 356.312M532.678 356.312C532.678 93.0729 182 142.77 182 142.77M532.678 356.312C532.678 469.999 461.471 600.693 311.35 566.767C284.66 560.736 253.414 539.022 253.414 539.022" stroke="#107AFC" stroke-width="77"/>
</g>
<g filter="url(#filter1_d_1_2)">
<path d="M1056.49 632V198.545H1202.95C1236.95 198.545 1264.75 204.683 1286.34 216.959C1308.07 229.093 1324.15 245.531 1334.59 266.273C1345.04 287.014 1350.26 310.154 1350.26 335.693C1350.26 361.232 1345.04 384.443 1334.59 405.325C1324.29 426.208 1308.35 442.857 1286.76 455.274C1265.17 467.55 1237.52 473.688 1203.8 473.688H1098.82V427.125H1202.1C1225.38 427.125 1244.08 423.104 1258.19 415.061C1272.3 407.018 1282.53 396.154 1288.88 382.467C1295.37 368.64 1298.61 353.048 1298.61 335.693C1298.61 318.338 1295.37 302.817 1288.88 289.131C1282.53 275.444 1272.23 264.721 1257.98 256.96C1243.73 249.059 1224.82 245.108 1201.26 245.108H1108.98V632H1056.49ZM1428.04 632V306.909H1477.99V632H1428.04ZM1453.43 252.727C1443.7 252.727 1435.3 249.411 1428.25 242.78C1421.33 236.148 1417.88 228.176 1417.88 218.864C1417.88 209.551 1421.33 201.579 1428.25 194.947C1435.3 188.316 1443.7 185 1453.43 185C1463.17 185 1471.49 188.316 1478.41 194.947C1485.46 201.579 1488.99 209.551 1488.99 218.864C1488.99 228.176 1485.46 236.148 1478.41 242.78C1471.49 249.411 1463.17 252.727 1453.43 252.727ZM1710.85 306.909V349.239H1542.38V306.909H1710.85ZM1591.48 229.023H1641.43V538.875C1641.43 552.985 1643.48 563.567 1647.57 570.622C1651.8 577.536 1657.16 582.192 1663.65 584.591C1670.28 586.848 1677.27 587.977 1684.61 587.977C1690.11 587.977 1694.62 587.695 1698.15 587.131C1701.68 586.425 1704.5 585.861 1706.62 585.438L1716.78 630.307C1713.39 631.577 1708.66 632.847 1702.6 634.116C1696.53 635.527 1688.84 636.233 1679.53 636.233C1665.42 636.233 1651.59 633.199 1638.04 627.132C1624.64 621.065 1613.49 611.823 1604.6 599.406C1595.86 586.99 1591.48 571.328 1591.48 552.42V229.023ZM1914.56 638.773C1884.08 638.773 1857.84 631.577 1835.83 617.185C1813.82 602.793 1796.89 582.968 1785.03 557.712C1773.18 532.455 1767.25 503.6 1767.25 471.148C1767.25 438.131 1773.32 408.994 1785.46 383.737C1797.73 358.339 1814.8 338.515 1836.68 324.264C1858.69 309.872 1884.37 302.676 1913.71 302.676C1936.57 302.676 1957.17 306.909 1975.52 315.375C1993.86 323.841 2008.89 335.693 2020.6 350.932C2032.31 366.17 2039.57 383.949 2042.4 404.267H1992.45C1988.64 389.452 1980.17 376.33 1967.05 364.901C1954.07 353.33 1936.57 347.545 1914.56 347.545C1895.09 347.545 1878.02 352.625 1863.34 362.784C1848.81 372.802 1837.45 386.982 1829.27 405.325C1821.22 423.527 1817.2 444.903 1817.2 469.455C1817.2 494.57 1821.15 516.44 1829.06 535.065C1837.1 553.69 1848.39 568.153 1862.92 578.453C1877.59 588.753 1894.81 593.903 1914.56 593.903C1927.54 593.903 1939.32 591.646 1949.91 587.131C1960.49 582.616 1969.45 576.125 1976.79 567.659C1984.12 559.193 1989.34 549.034 1992.45 537.182H2042.4C2039.57 556.371 2032.59 573.656 2021.44 589.036C2010.44 604.274 1995.83 616.409 1977.63 625.439C1959.57 634.328 1938.55 638.773 1914.56 638.773ZM2165.36 436.438V632H2115.42V198.545H2165.36V357.705H2169.6C2177.22 340.914 2188.65 327.58 2203.88 317.703C2219.26 307.685 2239.72 302.676 2265.26 302.676C2287.41 302.676 2306.82 307.121 2323.46 316.01C2340.11 324.758 2353.02 338.233 2362.2 356.435C2371.51 374.495 2376.17 397.494 2376.17 425.432V632H2326.22V428.818C2326.22 402.997 2319.51 383.032 2306.11 368.922C2292.85 354.671 2274.43 347.545 2250.87 347.545C2234.5 347.545 2219.83 351.002 2206.85 357.916C2194.01 364.83 2183.85 374.919 2176.37 388.182C2169.03 401.445 2165.36 417.53 2165.36 436.438ZM2474.32 198.545H2536.96L2684.27 558.347H2689.35L2836.66 198.545H2899.31V632H2850.2V302.676H2845.97L2710.52 632H2663.11L2527.65 302.676H2523.42V632H2474.32V198.545ZM3004.55 632V198.545H3266.14V245.108H3057.04V391.568H3252.6V438.131H3057.04V585.438H3269.53V632H3004.55Z" fill="black"/>
<path d="M1056.49 632H1041.49V647H1056.49V632ZM1056.49 198.545V183.545H1041.49V198.545H1056.49ZM1286.34 216.959L1278.92 229.998L1278.97 230.027L1279.02 230.055L1286.34 216.959ZM1334.59 266.273L1321.2 273.017L1321.2 273.017L1334.59 266.273ZM1334.59 405.325L1321.18 398.617L1321.16 398.653L1321.14 398.69L1334.59 405.325ZM1286.76 455.274L1294.18 468.313L1294.21 468.295L1294.24 468.277L1286.76 455.274ZM1098.82 473.688H1083.82V488.688H1098.82V473.688ZM1098.82 427.125V412.125H1083.82V427.125H1098.82ZM1258.19 415.061L1250.76 402.029L1250.76 402.029L1258.19 415.061ZM1288.88 382.467L1275.3 376.094L1275.28 376.124L1275.27 376.155L1288.88 382.467ZM1288.88 289.131L1275.27 295.443L1275.3 295.501L1275.32 295.558L1288.88 289.131ZM1257.98 256.96L1250.7 270.079L1250.75 270.106L1250.8 270.134L1257.98 256.96ZM1108.98 245.108V230.108H1093.98V245.108H1108.98ZM1108.98 632V647H1123.98V632H1108.98ZM1071.49 632V198.545H1041.49V632H1071.49ZM1056.49 213.545H1202.95V183.545H1056.49V213.545ZM1202.95 213.545C1235.27 213.545 1260.28 219.396 1278.92 229.998L1293.75 203.919C1269.22 189.971 1238.64 183.545 1202.95 183.545V213.545ZM1279.02 230.055C1298.33 240.838 1312.2 255.149 1321.2 273.017L1347.99 259.528C1336.1 235.914 1317.8 217.348 1293.65 203.863L1279.02 230.055ZM1321.2 273.017C1330.48 291.464 1335.26 312.259 1335.26 335.693H1365.26C1365.26 308.049 1359.59 282.564 1347.99 259.528L1321.2 273.017ZM1335.26 335.693C1335.26 359.126 1330.48 380.007 1321.18 398.617L1348.01 412.033C1359.59 388.878 1365.26 363.338 1365.26 335.693H1335.26ZM1321.14 398.69C1312.25 416.716 1298.48 431.23 1279.28 442.271L1294.24 468.277C1318.22 454.485 1336.34 435.7 1348.05 411.961L1321.14 398.69ZM1279.35 442.235C1260.69 452.846 1235.81 458.688 1203.8 458.688V488.688C1239.23 488.688 1269.66 482.253 1294.18 468.313L1279.35 442.235ZM1203.8 458.688H1098.82V488.688H1203.8V458.688ZM1113.82 473.688V427.125H1083.82V473.688H1113.82ZM1098.82 442.125H1202.1V412.125H1098.82V442.125ZM1202.1 442.125C1226.93 442.125 1248.47 437.865 1265.62 428.093L1250.76 402.029C1239.69 408.342 1223.84 412.125 1202.1 412.125V442.125ZM1265.62 428.093C1282.22 418.631 1294.72 405.514 1302.48 388.78L1275.27 376.155C1270.33 386.794 1262.38 395.406 1250.76 402.029L1265.62 428.093ZM1302.46 388.841C1310 372.764 1313.61 354.951 1313.61 335.693H1283.61C1283.61 351.146 1280.73 364.516 1275.3 376.094L1302.46 388.841ZM1313.61 335.693C1313.61 316.439 1310 298.672 1302.43 282.703L1275.32 295.558C1280.73 306.962 1283.61 320.237 1283.61 335.693H1313.61ZM1302.48 282.818C1294.68 265.989 1282 252.962 1265.15 243.787L1250.8 270.134C1262.46 276.479 1270.38 284.899 1275.27 295.443L1302.48 282.818ZM1265.25 243.842C1248 234.277 1226.3 230.108 1201.26 230.108V260.108C1223.34 260.108 1239.45 263.84 1250.7 270.079L1265.25 243.842ZM1201.26 230.108H1108.98V260.108H1201.26V230.108ZM1093.98 245.108V632H1123.98V245.108H1093.98ZM1108.98 617H1056.49V647H1108.98V617ZM1428.04 632H1413.04V647H1428.04V632ZM1428.04 306.909V291.909H1413.04V306.909H1428.04ZM1477.99 306.909H1492.99V291.909H1477.99V306.909ZM1477.99 632V647H1492.99V632H1477.99ZM1428.25 242.78L1417.86 253.605L1417.92 253.657L1417.97 253.709L1428.25 242.78ZM1428.25 194.947L1417.97 184.018L1417.92 184.07L1417.86 184.122L1428.25 194.947ZM1478.41 194.947L1468.03 205.773L1468.08 205.825L1468.13 205.877L1478.41 194.947ZM1478.41 242.78L1468.13 231.85L1468.08 231.902L1468.02 231.955L1478.41 242.78ZM1443.04 632V306.909H1413.04V632H1443.04ZM1428.04 321.909H1477.99V291.909H1428.04V321.909ZM1462.99 306.909V632H1492.99V306.909H1462.99ZM1477.99 617H1428.04V647H1477.99V617ZM1453.43 237.727C1447.49 237.727 1442.78 235.851 1438.52 231.85L1417.97 253.709C1427.83 262.972 1439.9 267.727 1453.43 267.727V237.727ZM1438.63 231.955C1434.57 228.06 1432.88 223.959 1432.88 218.864H1402.88C1402.88 232.393 1408.1 244.236 1417.86 253.605L1438.63 231.955ZM1432.88 218.864C1432.88 213.768 1434.57 209.667 1438.63 205.773L1417.86 184.122C1408.1 193.491 1402.88 205.334 1402.88 218.864H1432.88ZM1438.52 205.877C1442.78 201.876 1447.49 200 1453.43 200V170C1439.9 170 1427.83 174.756 1417.97 184.018L1438.52 205.877ZM1453.43 200C1459.37 200 1463.95 201.868 1468.03 205.773L1488.79 184.122C1479.03 174.763 1466.97 170 1453.43 170V200ZM1468.13 205.877C1472.31 209.8 1473.99 213.872 1473.99 218.864H1503.99C1503.99 205.23 1498.62 193.358 1488.68 184.018L1468.13 205.877ZM1473.99 218.864C1473.99 223.855 1472.31 227.927 1468.13 231.85L1488.68 253.709C1498.62 244.37 1503.99 232.497 1503.99 218.864H1473.99ZM1468.02 231.955C1463.95 235.859 1459.37 237.727 1453.43 237.727V267.727C1466.97 267.727 1479.03 262.964 1488.79 253.605L1468.02 231.955ZM1710.85 306.909H1725.85V291.909H1710.85V306.909ZM1710.85 349.239V364.239H1725.85V349.239H1710.85ZM1542.38 349.239H1527.38V364.239H1542.38V349.239ZM1542.38 306.909V291.909H1527.38V306.909H1542.38ZM1591.48 229.023V214.023H1576.48V229.023H1591.48ZM1641.43 229.023H1656.43V214.023H1641.43V229.023ZM1647.57 570.622L1634.59 578.148L1634.68 578.302L1634.78 578.454L1647.57 570.622ZM1663.65 584.591L1658.45 598.661L1658.64 598.728L1658.82 598.791L1663.65 584.591ZM1698.15 587.131L1700.52 601.942L1700.81 601.896L1701.09 601.839L1698.15 587.131ZM1706.62 585.438L1721.25 582.125L1718.02 567.86L1703.68 570.729L1706.62 585.438ZM1716.78 630.307L1722.04 644.352L1734.3 639.757L1731.41 626.994L1716.78 630.307ZM1702.6 634.116L1699.52 619.435L1699.36 619.469L1699.2 619.506L1702.6 634.116ZM1638.04 627.132L1631.86 640.797L1631.89 640.81L1631.91 640.822L1638.04 627.132ZM1604.6 599.406L1592.34 608.046L1592.37 608.092L1592.41 608.138L1604.6 599.406ZM1695.85 306.909V349.239H1725.85V306.909H1695.85ZM1710.85 334.239H1542.38V364.239H1710.85V334.239ZM1557.38 349.239V306.909H1527.38V349.239H1557.38ZM1542.38 321.909H1710.85V291.909H1542.38V321.909ZM1591.48 244.023H1641.43V214.023H1591.48V244.023ZM1626.43 229.023V538.875H1656.43V229.023H1626.43ZM1626.43 538.875C1626.43 553.943 1628.53 567.693 1634.59 578.148L1660.54 563.096C1658.42 559.442 1656.43 552.026 1656.43 538.875H1626.43ZM1634.78 578.454C1640.45 587.727 1648.28 594.902 1658.45 598.661L1668.85 570.521C1666.04 569.483 1663.15 567.345 1660.36 562.79L1634.78 578.454ZM1658.82 598.791C1667.08 601.603 1675.7 602.977 1684.61 602.977V572.977C1678.83 572.977 1673.49 572.094 1668.49 570.391L1658.82 598.791ZM1684.61 602.977C1690.53 602.977 1695.91 602.68 1700.52 601.942L1695.78 572.319C1693.34 572.71 1689.69 572.977 1684.61 572.977V602.977ZM1701.09 601.839C1704.62 601.134 1707.44 600.57 1709.56 600.146L1703.68 570.729C1701.56 571.152 1698.74 571.716 1695.21 572.422L1701.09 601.839ZM1691.99 588.75L1702.15 633.619L1731.41 626.994L1721.25 582.125L1691.99 588.75ZM1711.51 616.262C1709.17 617.141 1705.29 618.228 1699.52 619.435L1705.67 648.798C1712.04 647.466 1717.62 646.012 1722.04 644.352L1711.51 616.262ZM1699.2 619.506C1694.65 620.565 1688.2 621.233 1679.53 621.233V651.233C1689.48 651.233 1698.41 650.49 1705.99 648.727L1699.2 619.506ZM1679.53 621.233C1667.64 621.233 1655.89 618.692 1644.18 613.443L1631.91 640.822C1647.28 647.707 1663.19 651.233 1679.53 651.233V621.233ZM1644.23 613.467C1633.32 608.529 1624.21 601.032 1616.8 590.675L1592.41 608.138C1602.77 622.614 1615.96 633.601 1631.86 640.797L1644.23 613.467ZM1616.87 590.767C1610.29 581.439 1606.48 568.999 1606.48 552.42H1576.48C1576.48 573.657 1581.42 592.54 1592.34 608.046L1616.87 590.767ZM1606.48 552.42V229.023H1576.48V552.42H1606.48ZM1835.83 617.185L1827.62 629.739L1827.62 629.739L1835.83 617.185ZM1785.46 383.737L1771.95 377.21L1771.94 377.225L1771.94 377.241L1785.46 383.737ZM1836.68 324.264L1844.86 336.832L1844.87 336.825L1844.88 336.819L1836.68 324.264ZM2020.6 350.932L2032.49 341.791L2032.49 341.791L2020.6 350.932ZM2042.4 404.267V419.267H2059.62L2057.25 402.204L2042.4 404.267ZM1992.45 404.267L1977.92 408.003L1980.82 419.267H1992.45V404.267ZM1967.05 364.901L1957.07 376.098L1957.13 376.155L1957.2 376.212L1967.05 364.901ZM1863.34 362.784L1871.86 375.134L1871.87 375.126L1871.88 375.117L1863.34 362.784ZM1829.27 405.325L1815.57 399.214L1815.56 399.238L1815.55 399.263L1829.27 405.325ZM1829.06 535.065L1815.25 540.924L1815.27 540.968L1815.28 541.012L1829.06 535.065ZM1862.92 578.453L1854.25 590.691L1854.27 590.711L1854.3 590.731L1862.92 578.453ZM1949.91 587.131L1944.02 573.334L1944.02 573.334L1949.91 587.131ZM1976.79 567.659L1988.12 577.483L1988.12 577.483L1976.79 567.659ZM1992.45 537.182V522.182H1980.87L1977.94 533.381L1992.45 537.182ZM2042.4 537.182L2057.24 539.364L2059.76 522.182H2042.4V537.182ZM2021.44 589.036L2009.3 580.233L2009.29 580.243L2009.28 580.253L2021.44 589.036ZM1977.63 625.439L1984.26 638.897L1984.28 638.887L1984.3 638.876L1977.63 625.439ZM1914.56 623.773C1886.53 623.773 1863.24 617.185 1844.04 604.63L1827.62 629.739C1852.44 645.968 1881.64 653.773 1914.56 653.773V623.773ZM1844.04 604.63C1824.5 591.855 1809.36 574.237 1798.61 551.339L1771.45 564.084C1784.41 591.7 1803.14 613.731 1827.62 629.739L1844.04 604.63ZM1798.61 551.339C1787.84 528.377 1782.25 501.755 1782.25 471.148H1752.25C1752.25 505.445 1758.52 536.533 1771.45 564.084L1798.61 551.339ZM1782.25 471.148C1782.25 439.981 1787.98 413.132 1798.98 390.233L1771.94 377.241C1758.67 404.856 1752.25 436.28 1752.25 471.148H1782.25ZM1798.96 390.265C1810.15 367.121 1825.47 349.471 1844.86 336.832L1828.49 311.697C1804.14 327.559 1785.32 349.558 1771.95 377.21L1798.96 390.265ZM1844.88 336.819C1864.18 324.204 1886.93 317.676 1913.71 317.676V287.676C1881.8 287.676 1853.2 295.541 1828.47 311.71L1844.88 336.819ZM1913.71 317.676C1934.69 317.676 1953.1 321.551 1969.23 328.994L1981.8 301.756C1961.24 292.267 1938.46 287.676 1913.71 287.676V317.676ZM1969.23 328.994C1985.49 336.497 1998.55 346.857 2008.7 360.072L2032.49 341.791C2019.22 324.529 2002.23 311.185 1981.8 301.756L1969.23 328.994ZM2008.7 360.072C2018.72 373.11 2025.05 388.409 2027.54 406.331L2057.25 402.204C2054.1 379.489 2045.89 359.231 2032.49 341.791L2008.7 360.072ZM2042.4 389.267H1992.45V419.267H2042.4V389.267ZM2006.98 400.531C2002.31 382.383 1991.99 366.728 1976.9 353.589L1957.2 376.212C1968.36 385.931 1974.97 396.52 1977.92 408.003L2006.98 400.531ZM1977.03 353.703C1960.63 339.085 1939.24 332.545 1914.56 332.545V362.545C1933.9 362.545 1947.51 367.576 1957.07 376.098L1977.03 353.703ZM1914.56 332.545C1892.33 332.545 1872.22 338.397 1854.8 350.451L1871.88 375.117C1883.82 366.853 1897.85 362.545 1914.56 362.545V332.545ZM1854.83 350.434C1837.73 362.222 1824.72 378.709 1815.57 399.214L1842.97 411.437C1850.19 395.256 1859.89 383.382 1871.86 375.134L1854.83 350.434ZM1815.55 399.263C1806.49 419.766 1802.2 443.291 1802.2 469.455H1832.2C1832.2 446.516 1835.96 427.288 1842.99 411.388L1815.55 399.263ZM1802.2 469.455C1802.2 496.112 1806.39 520.056 1815.25 540.924L1842.86 529.207C1835.91 512.824 1832.2 493.028 1832.2 469.455H1802.2ZM1815.28 541.012C1824.26 561.803 1837.17 578.589 1854.25 590.691L1871.59 566.215C1859.6 557.717 1849.93 545.577 1842.83 529.119L1815.28 541.012ZM1854.3 590.731C1871.76 602.983 1892.05 608.903 1914.56 608.903V578.903C1897.56 578.903 1883.43 574.524 1871.54 566.176L1854.3 590.731ZM1914.56 608.903C1929.31 608.903 1943.13 606.332 1955.79 600.927L1944.02 573.334C1935.52 576.959 1925.78 578.903 1914.56 578.903V608.903ZM1955.79 600.927C1968.41 595.544 1979.25 587.717 1988.12 577.483L1965.45 557.835C1959.65 564.533 1952.57 569.687 1944.02 573.334L1955.79 600.927ZM1988.12 577.483C1997.1 567.121 2003.33 554.847 2006.96 540.982L1977.94 533.381C1975.36 543.221 1971.14 551.265 1965.45 557.835L1988.12 577.483ZM1992.45 552.182H2042.4V522.182H1992.45V552.182ZM2027.56 534.999C2025.08 551.85 2019 566.853 2009.3 580.233L2033.59 597.838C2046.19 580.459 2054.07 560.893 2057.24 539.364L2027.56 534.999ZM2009.28 580.253C1999.82 593.36 1987.17 603.964 1970.97 612.002L1984.3 638.876C2004.5 628.853 2021.06 615.189 2033.6 597.818L2009.28 580.253ZM1971.01 611.981C1955.37 619.679 1936.69 623.773 1914.56 623.773V653.773C1940.41 653.773 1963.78 648.977 1984.26 638.897L1971.01 611.981ZM2165.36 632V647H2180.36V632H2165.36ZM2115.42 632H2100.42V647H2115.42V632ZM2115.42 198.545V183.545H2100.42V198.545H2115.42ZM2165.36 198.545H2180.36V183.545H2165.36V198.545ZM2165.36 357.705H2150.36V372.705H2165.36V357.705ZM2169.6 357.705V372.705H2179.26L2183.26 363.903L2169.6 357.705ZM2203.88 317.703L2212.04 330.29L2212.06 330.281L2212.07 330.272L2203.88 317.703ZM2323.46 316.01L2316.4 329.242L2316.44 329.265L2316.49 329.289L2323.46 316.01ZM2362.2 356.435L2348.8 363.184L2348.83 363.247L2348.86 363.309L2362.2 356.435ZM2376.17 632V647H2391.17V632H2376.17ZM2326.22 632H2311.22V647H2326.22V632ZM2306.11 368.922L2295.13 379.141L2295.18 379.197L2295.23 379.253L2306.11 368.922ZM2206.85 357.916L2199.8 344.677L2199.77 344.693L2199.74 344.709L2206.85 357.916ZM2176.37 388.182L2163.3 380.815L2163.27 380.868L2163.24 380.921L2176.37 388.182ZM2150.36 436.438V632H2180.36V436.438H2150.36ZM2165.36 617H2115.42V647H2165.36V617ZM2130.42 632V198.545H2100.42V632H2130.42ZM2115.42 213.545H2165.36V183.545H2115.42V213.545ZM2150.36 198.545V357.705H2180.36V198.545H2150.36ZM2165.36 372.705H2169.6V342.705H2165.36V372.705ZM2183.26 363.903C2189.71 349.681 2199.25 338.582 2212.04 330.29L2195.73 305.116C2178.04 316.578 2164.72 332.146 2155.94 351.506L2183.26 363.903ZM2212.07 330.272C2224.24 322.348 2241.53 317.676 2265.26 317.676V287.676C2237.91 287.676 2214.29 293.022 2195.7 305.134L2212.07 330.272ZM2265.26 317.676C2285.38 317.676 2302.27 321.7 2316.4 329.242L2330.53 302.778C2311.36 292.542 2289.45 287.676 2265.26 287.676V317.676ZM2316.49 329.289C2330.14 336.459 2340.91 347.529 2348.8 363.184L2375.59 349.685C2365.14 328.937 2350.09 313.057 2330.44 302.731L2316.49 329.289ZM2348.86 363.309C2356.75 378.599 2361.17 399.036 2361.17 425.432H2391.17C2391.17 395.952 2386.27 370.391 2375.53 349.56L2348.86 363.309ZM2361.17 425.432V632H2391.17V425.432H2361.17ZM2376.17 617H2326.22V647H2376.17V617ZM2341.22 632V428.818H2311.22V632H2341.22ZM2341.22 428.818C2341.22 400.442 2333.81 376.301 2316.98 358.591L2295.23 379.253C2305.22 389.762 2311.22 405.552 2311.22 428.818H2341.22ZM2317.09 358.703C2300.4 340.773 2277.65 332.545 2250.87 332.545V362.545C2271.21 362.545 2285.29 368.569 2295.13 379.141L2317.09 358.703ZM2250.87 332.545C2232.33 332.545 2215.18 336.481 2199.8 344.677L2213.9 371.155C2224.47 365.523 2236.68 362.545 2250.87 362.545V332.545ZM2199.74 344.709C2184.29 353.029 2172.11 365.195 2163.3 380.815L2189.44 395.549C2195.59 384.642 2203.73 376.632 2213.96 371.123L2199.74 344.709ZM2163.24 380.921C2154.41 396.892 2150.36 415.609 2150.36 436.438H2180.36C2180.36 419.451 2183.66 405.998 2189.5 395.443L2163.24 380.921ZM2474.32 198.545V183.545H2459.32V198.545H2474.32ZM2536.96 198.545L2550.85 192.862L2547.03 183.545H2536.96V198.545ZM2684.27 558.347L2670.39 564.03L2674.2 573.347H2684.27V558.347ZM2689.35 558.347V573.347H2699.42L2703.23 564.03L2689.35 558.347ZM2836.66 198.545V183.545H2826.59L2822.78 192.862L2836.66 198.545ZM2899.31 198.545H2914.31V183.545H2899.31V198.545ZM2899.31 632V647H2914.31V632H2899.31ZM2850.2 632H2835.2V647H2850.2V632ZM2850.2 302.676H2865.2V287.676H2850.2V302.676ZM2845.97 302.676V287.676H2835.92L2832.1 296.97L2845.97 302.676ZM2710.52 632V647H2720.57L2724.39 637.706L2710.52 632ZM2663.11 632L2649.23 637.706L2653.06 647H2663.11V632ZM2527.65 302.676L2541.52 296.97L2537.7 287.676H2527.65V302.676ZM2523.42 302.676V287.676H2508.42V302.676H2523.42ZM2523.42 632V647H2538.42V632H2523.42ZM2474.32 632H2459.32V647H2474.32V632ZM2474.32 213.545H2536.96V183.545H2474.32V213.545ZM2523.08 204.229L2670.39 564.03L2698.15 552.663L2550.85 192.862L2523.08 204.229ZM2684.27 573.347H2689.35V543.347H2684.27V573.347ZM2703.23 564.03L2850.54 204.229L2822.78 192.862L2675.47 552.663L2703.23 564.03ZM2836.66 213.545H2899.31V183.545H2836.66V213.545ZM2884.31 198.545V632H2914.31V198.545H2884.31ZM2899.31 617H2850.2V647H2899.31V617ZM2865.2 632V302.676H2835.2V632H2865.2ZM2850.2 287.676H2845.97V317.676H2850.2V287.676ZM2832.1 296.97L2696.64 626.294L2724.39 637.706L2859.84 308.382L2832.1 296.97ZM2710.52 617H2663.11V647H2710.52V617ZM2676.98 626.294L2541.52 296.97L2513.78 308.382L2649.23 637.706L2676.98 626.294ZM2527.65 287.676H2523.42V317.676H2527.65V287.676ZM2508.42 302.676V632H2538.42V302.676H2508.42ZM2523.42 617H2474.32V647H2523.42V617ZM2489.32 632V198.545H2459.32V632H2489.32ZM3004.55 632H2989.55V647H3004.55V632ZM3004.55 198.545V183.545H2989.55V198.545H3004.55ZM3266.14 198.545H3281.14V183.545H3266.14V198.545ZM3266.14 245.108V260.108H3281.14V245.108H3266.14ZM3057.04 245.108V230.108H3042.04V245.108H3057.04ZM3057.04 391.568H3042.04V406.568H3057.04V391.568ZM3252.6 391.568H3267.6V376.568H3252.6V391.568ZM3252.6 438.131V453.131H3267.6V438.131H3252.6ZM3057.04 438.131V423.131H3042.04V438.131H3057.04ZM3057.04 585.438H3042.04V600.438H3057.04V585.438ZM3269.53 585.438H3284.53V570.438H3269.53V585.438ZM3269.53 632V647H3284.53V632H3269.53ZM3019.55 632V198.545H2989.55V632H3019.55ZM3004.55 213.545H3266.14V183.545H3004.55V213.545ZM3251.14 198.545V245.108H3281.14V198.545H3251.14ZM3266.14 230.108H3057.04V260.108H3266.14V230.108ZM3042.04 245.108V391.568H3072.04V245.108H3042.04ZM3057.04 406.568H3252.6V376.568H3057.04V406.568ZM3237.6 391.568V438.131H3267.6V391.568H3237.6ZM3252.6 423.131H3057.04V453.131H3252.6V423.131ZM3042.04 438.131V585.438H3072.04V438.131H3042.04ZM3057.04 600.438H3269.53V570.438H3057.04V600.438ZM3254.53 585.438V632H3284.53V585.438H3254.53ZM3269.53 617H3004.55V647H3269.53V617Z" fill="black"/>
</g>
<path d="M1558.66 866V778H1588.39C1595.27 778 1600.91 779.174 1605.32 781.523C1609.73 783.844 1613 787.038 1615.12 791.105C1617.24 795.173 1618.3 799.799 1618.3 804.984C1618.3 810.169 1617.24 814.767 1615.12 818.777C1613 822.788 1609.75 825.939 1605.36 828.23C1600.98 830.493 1595.38 831.625 1588.56 831.625H1564.5V822H1588.22C1592.92 822 1596.7 821.312 1599.56 819.937C1602.46 818.562 1604.55 816.615 1605.84 814.094C1607.15 811.544 1607.81 808.508 1607.81 804.984C1607.81 801.461 1607.15 798.382 1605.84 795.746C1604.52 793.111 1602.41 791.077 1599.52 789.645C1596.63 788.184 1592.8 787.453 1588.05 787.453H1569.31V866H1558.66ZM1600.08 826.469L1621.73 866H1609.36L1588.05 826.469H1600.08ZM1703.13 867.375C1697.17 867.375 1691.95 865.957 1687.45 863.121C1682.98 860.285 1679.49 856.318 1676.96 851.219C1674.47 846.12 1673.23 840.161 1673.23 833.344C1673.23 826.469 1674.47 820.467 1676.96 815.34C1679.49 810.212 1682.98 806.23 1687.45 803.395C1691.95 800.559 1697.17 799.141 1703.13 799.141C1709.09 799.141 1714.3 800.559 1718.77 803.395C1723.27 806.23 1726.77 810.212 1729.26 815.34C1731.78 820.467 1733.04 826.469 1733.04 833.344C1733.04 840.161 1731.78 846.12 1729.26 851.219C1726.77 856.318 1723.27 860.285 1718.77 863.121C1714.3 865.957 1709.09 867.375 1703.13 867.375ZM1703.13 858.266C1707.66 858.266 1711.38 857.105 1714.3 854.785C1717.23 852.465 1719.39 849.414 1720.79 845.633C1722.2 841.852 1722.9 837.755 1722.9 833.344C1722.9 828.932 1722.2 824.822 1720.79 821.012C1719.39 817.202 1717.23 814.122 1714.3 811.773C1711.38 809.424 1707.66 808.25 1703.13 808.25C1698.61 808.25 1694.88 809.424 1691.96 811.773C1689.04 814.122 1686.88 817.202 1685.47 821.012C1684.07 824.822 1683.37 828.932 1683.37 833.344C1683.37 837.755 1684.07 841.852 1685.47 845.633C1686.88 849.414 1689.04 852.465 1691.96 854.785C1694.88 857.105 1698.61 858.266 1703.13 858.266ZM1810.29 867.547C1806.11 867.547 1802.31 866.759 1798.9 865.184C1795.49 863.579 1792.79 861.273 1790.78 858.266C1788.78 855.229 1787.77 851.562 1787.77 847.266C1787.77 843.484 1788.52 840.419 1790.01 838.07C1791.5 835.693 1793.49 833.831 1795.98 832.484C1798.47 831.138 1801.22 830.135 1804.23 829.477C1807.27 828.789 1810.32 828.245 1813.38 827.844C1817.39 827.328 1820.65 826.941 1823.14 826.684C1825.66 826.397 1827.49 825.924 1828.64 825.266C1829.81 824.607 1830.4 823.461 1830.4 821.828V821.484C1830.4 817.245 1829.24 813.951 1826.92 811.602C1824.63 809.253 1821.15 808.078 1816.48 808.078C1811.64 808.078 1807.84 809.138 1805.09 811.258C1802.34 813.378 1800.41 815.641 1799.29 818.047L1789.67 814.609C1791.38 810.599 1793.68 807.477 1796.54 805.242C1799.43 802.979 1802.58 801.404 1805.99 800.516C1809.43 799.599 1812.81 799.141 1816.13 799.141C1818.25 799.141 1820.69 799.398 1823.44 799.914C1826.22 800.401 1828.9 801.418 1831.47 802.965C1834.08 804.512 1836.24 806.846 1837.96 809.969C1839.68 813.091 1840.54 817.273 1840.54 822.516V866H1830.4V857.062H1829.88C1829.2 858.495 1828.05 860.027 1826.45 861.66C1824.84 863.293 1822.71 864.682 1820.04 865.828C1817.38 866.974 1814.13 867.547 1810.29 867.547ZM1811.84 858.438C1815.85 858.438 1819.23 857.65 1821.98 856.074C1824.76 854.499 1826.85 852.465 1828.25 849.973C1829.68 847.48 1830.4 844.859 1830.4 842.109V832.828C1829.97 833.344 1829.02 833.816 1827.56 834.246C1826.13 834.647 1824.47 835.005 1822.58 835.32C1820.72 835.607 1818.9 835.865 1817.12 836.094C1815.37 836.294 1813.96 836.466 1812.87 836.609C1810.23 836.953 1807.77 837.512 1805.48 838.285C1803.21 839.03 1801.38 840.161 1799.98 841.68C1798.6 843.169 1797.92 845.203 1797.92 847.781C1797.92 851.305 1799.22 853.969 1801.83 855.773C1804.46 857.549 1807.8 858.438 1811.84 858.438ZM1926.32 867.375C1920.82 867.375 1915.97 865.986 1911.75 863.207C1907.54 860.4 1904.25 856.447 1901.87 851.348C1899.49 846.22 1898.31 840.161 1898.31 833.172C1898.31 826.24 1899.49 820.224 1901.87 815.125C1904.25 810.026 1907.56 806.087 1911.8 803.309C1916.04 800.53 1920.94 799.141 1926.49 799.141C1930.79 799.141 1934.18 799.857 1936.68 801.289C1939.2 802.693 1941.12 804.297 1942.43 806.102C1943.78 807.878 1944.83 809.339 1945.57 810.484H1946.43V778H1956.57V866H1946.77V855.859H1945.57C1944.83 857.062 1943.77 858.581 1942.39 860.414C1941.02 862.219 1939.05 863.837 1936.5 865.27C1933.95 866.673 1930.56 867.375 1926.32 867.375ZM1927.7 858.266C1931.76 858.266 1935.2 857.206 1938.01 855.086C1940.82 852.937 1942.95 849.973 1944.41 846.191C1945.87 842.382 1946.6 837.984 1946.6 833C1946.6 828.073 1945.89 823.762 1944.45 820.066C1943.02 816.342 1940.9 813.449 1938.09 811.387C1935.29 809.296 1931.82 808.25 1927.7 808.25C1923.4 808.25 1919.82 809.353 1916.95 811.559C1914.12 813.736 1911.98 816.701 1910.55 820.453C1909.15 824.177 1908.45 828.359 1908.45 833C1908.45 837.698 1909.16 841.966 1910.59 845.805C1912.06 849.615 1914.2 852.651 1917.04 854.914C1919.9 857.148 1923.46 858.266 1927.7 858.266ZM2091.84 787.453V778H2157.84V787.453H2130.17V866H2119.52V787.453H2091.84ZM2232.51 867.375C2226.55 867.375 2221.32 865.957 2216.82 863.121C2212.36 860.285 2208.86 856.318 2206.34 851.219C2203.85 846.12 2202.6 840.161 2202.6 833.344C2202.6 826.469 2203.85 820.467 2206.34 815.34C2208.86 810.212 2212.36 806.23 2216.82 803.395C2221.32 800.559 2226.55 799.141 2232.51 799.141C2238.47 799.141 2243.68 800.559 2248.15 803.395C2252.65 806.23 2256.14 810.212 2258.63 815.34C2261.15 820.467 2262.41 826.469 2262.41 833.344C2262.41 840.161 2261.15 846.12 2258.63 851.219C2256.14 856.318 2252.65 860.285 2248.15 863.121C2243.68 865.957 2238.47 867.375 2232.51 867.375ZM2232.51 858.266C2237.03 858.266 2240.76 857.105 2243.68 854.785C2246.6 852.465 2248.76 849.414 2250.17 845.633C2251.57 841.852 2252.27 837.755 2252.27 833.344C2252.27 828.932 2251.57 824.822 2250.17 821.012C2248.76 817.202 2246.6 814.122 2243.68 811.773C2240.76 809.424 2237.03 808.25 2232.51 808.25C2227.98 808.25 2224.26 809.424 2221.34 811.773C2218.41 814.122 2216.25 817.202 2214.85 821.012C2213.44 824.822 2212.74 828.932 2212.74 833.344C2212.74 837.755 2213.44 841.852 2214.85 845.633C2216.25 849.414 2218.41 852.465 2221.34 854.785C2224.26 857.105 2227.98 858.266 2232.51 858.266ZM2398 866V778H2451.11V787.453H2408.66V817.187H2448.36V826.641H2408.66V856.547H2451.8V866H2398ZM2517.82 778L2540.51 814.609H2541.2L2563.88 778H2576.43L2548.76 822L2576.43 866H2563.88L2541.2 830.078H2540.51L2517.82 866H2505.28L2533.63 822L2505.28 778H2517.82ZM2643.31 778V866H2632.65V778H2643.31ZM2702.21 787.453V778H2768.21V787.453H2740.54V866H2729.88V787.453H2702.21Z" fill="black"/>
<defs>
<filter id="filter0_d_1_2" x="143.348" y="100.536" width="774.412" height="780.817" filterUnits="userSpaceOnUse" color-interpolation-filters="sRGB">
<feFlood flood-opacity="0" result="BackgroundImageFix"/>
<feColorMatrix in="SourceAlpha" type="matrix" values="0 0 0 0 0 0 0 0 0 0 0 0 0 0 0 0 0 0 127 0" result="hardAlpha"/>
<feOffset dy="4"/>
<feGaussianBlur stdDeviation="2"/>
<feComposite in2="hardAlpha" operator="out"/>
<feColorMatrix type="matrix" values="0 0 0 0 0 0 0 0 0 0 0 0 0 0 0 0 0 0 0.25 0"/>
<feBlend mode="normal" in2="BackgroundImageFix" result="effect1_dropShadow_1_2"/>
<feBlend mode="normal" in="SourceGraphic" in2="effect1_dropShadow_1_2" result="shape"/>
</filter>
<filter id="filter1_d_1_2" x="1052.49" y="185" width="2221.04" height="461.773" filterUnits="userSpaceOnUse" color-interpolation-filters="sRGB">
<feFlood flood-opacity="0" result="BackgroundImageFix"/>
<feColorMatrix in="SourceAlpha" type="matrix" values="0 0 0 0 0 0 0 0 0 0 0 0 0 0 0 0 0 0 127 0" result="hardAlpha"/>
<feOffset dy="4"/>
<feGaussianBlur stdDeviation="2"/>
<feComposite in2="hardAlpha" operator="out"/>
<feColorMatrix type="matrix" values="0 0 0 0 0 0 0 0 0 0 0 0 0 0 0 0 0 0 0.25 0"/>
<feBlend mode="normal" in2="BackgroundImageFix" result="effect1_dropShadow_1_2"/>
<feBlend mode="normal" in="SourceGraphic" in2="effect1_dropShadow_1_2" result="shape"/>
</filter>
</defs>
</svg>
