<?xml version="1.0" encoding="UTF-8"?>
<svg id="Layer_2" data-name="Layer 2" xmlns="http://www.w3.org/2000/svg" viewBox="0 0 108.81 109.87">
  <g id="Layer_1-2" data-name="Layer 1">
    <path d="M64.86,33.72l-10.46-24.52h15.73l8.92,24.52h-14.2Z"/>
    <rect x="31.8" y="0" width="18.55" height="33.19" rx="7.15" ry="7.15"/>
    <rect x="31.8" y="36.77" width="18.55" height="44.43" rx="7.15" ry="7.15"/>
    <path d="M59.68,36.77h24.78c4.19,0,6.79,4.14,4.64,7.4l-22.86,34.64c-.98,1.48-2.74,2.38-4.64,2.38h-16.72c-4.99,0-7.31-5.61-3.55-8.58l20.93-16.54c3.76-2.97,1.44-8.58-3.55-8.58h0c-4.73,0-7.17-5.11-3.94-8.24l.97-.94c1.02-.99,2.45-1.55,3.94-1.55Z"/>
    <g>
      <path d="M14.55,102.08c0,1.55-.26,2.91-.79,4.1-.53,1.16-1.31,2.06-2.34,2.71-1.03.64-2.27.96-3.71.96-1.16,0-2.2-.22-3.12-.66-.92-.44-1.65-1.08-2.2-1.94v2.26H0v-21.58h2.45v8.89c.57-.83,1.3-1.47,2.2-1.9.9-.43,1.92-.64,3.06-.64,1.45,0,2.69.32,3.71.96,1.03.64,1.81,1.55,2.34,2.73s.79,2.55.79,4.1ZM11.95,102.08c0-1.24-.19-2.28-.58-3.12-.37-.84-.91-1.47-1.64-1.9-.72-.43-1.58-.64-2.58-.64s-1.79.2-2.51.61c-.71.41-1.26,1.01-1.65,1.8-.39.79-.58,1.75-.58,2.87v.73c0,1.12.19,2.08.58,2.87.39.79.94,1.4,1.65,1.8.71.41,1.55.61,2.51.61s1.86-.22,2.58-.66c.72-.44,1.27-1.06,1.64-1.88.39-.88.58-1.92.58-3.12Z"/>
      <path d="M30.07,100.7v8.8h-2.45v-2.11c-1.08,1.65-2.91,2.47-5.5,2.47-1.26,0-2.34-.21-3.24-.64-.9-.43-1.53-1.05-1.9-1.86-.25-.59-.37-1.24-.37-1.96s.12-1.34.37-1.9c.47-1.04,1.3-1.76,2.49-2.15,1.19-.4,2.71-.6,4.57-.6h3.58v-.49c0-.45-.03-.84-.09-1.19-.06-.35-.16-.68-.31-1.01-.51-1.16-1.71-1.74-3.61-1.74s-3.17.55-3.7,1.65c-.18.43-.27.87-.27,1.31h-2.48c.04-.9.19-1.62.46-2.17.41-.96,1.13-1.67,2.16-2.14,1.03-.47,2.3-.7,3.8-.7s2.81.24,3.77.72,1.67,1.22,2.09,2.22c.41.88.61,2.04.61,3.48ZM25.51,107.23c.74-.4,1.29-.98,1.64-1.76.33-.71.49-1.61.49-2.69v-.15h-3.39c-1.28,0-2.35.12-3.19.35-.85.24-1.4.65-1.67,1.24-.14.33-.21.65-.21.98,0,.37.07.73.21,1.1.22.53.63.92,1.22,1.16.59.24,1.3.37,2.14.37,1.1,0,2.02-.2,2.77-.6Z"/>
      <path d="M36,108.85c-1.14-.66-1.99-1.6-2.54-2.83-.49-1.14-.73-2.46-.73-3.94s.25-2.81.73-3.91c.55-1.24,1.39-2.2,2.52-2.87,1.13-.67,2.49-1.01,4.08-1.01,2.1,0,3.78.57,5.04,1.71.55.51.98,1.11,1.3,1.8s.48,1.46.5,2.29h-2.63c-.08-1.08-.47-1.97-1.16-2.66-.37-.33-.81-.58-1.33-.75s-1.1-.26-1.73-.26c-1,0-1.85.22-2.55.66-.7.44-1.24,1.05-1.6,1.85s-.55,1.84-.55,3.15.18,2.33.55,3.15c.37.77.9,1.38,1.6,1.82.7.44,1.55.66,2.55.66.65,0,1.24-.09,1.76-.26.52-.17.95-.42,1.3-.75.35-.31.62-.68.81-1.13.19-.45.3-.94.32-1.47h2.66c-.1,1.69-.69,3.05-1.77,4.07-.61.55-1.35.97-2.22,1.25-.87.28-1.82.43-2.86.43-1.57,0-2.92-.33-4.06-.99Z"/>
      <path d="M58.9,109.5l-6.75-7.43v7.43h-2.45v-21.58h2.45v12.5l6.02-5.78h3.21l-6.94,6.57,7.7,8.28h-3.24Z"/>
      <path d="M65.84,108.62c-.71-.75-1.07-1.94-1.07-3.55v-8.35h-2.48v-2.08h2.48v-3.61h2.45v3.61h4.62v2.08h-4.62v7.98c0,.98.21,1.71.64,2.19s1.07.72,1.93.72c.59,0,1.23-.08,1.93-.25v2.08c-.88.2-1.72.31-2.54.31-1.51,0-2.62-.38-3.33-1.13Z"/>
      <path d="M74.26,91.58c-.3-.27-.44-.65-.44-1.12s.15-.81.46-1.1c.31-.29.7-.43,1.19-.43.45,0,.82.14,1.13.43.31.28.46.65.46,1.1s-.15.82-.46,1.1c-.31.29-.68.43-1.13.43-.51,0-.91-.14-1.21-.41ZM74.21,94.65h2.45v14.85h-2.45v-14.85Z"/>
      <path d="M82.67,108.85c-1.14-.66-1.99-1.6-2.54-2.83-.49-1.14-.73-2.46-.73-3.94s.24-2.81.73-3.91c.55-1.24,1.39-2.2,2.52-2.87,1.13-.67,2.49-1.01,4.08-1.01,2.1,0,3.78.57,5.04,1.71.55.51.98,1.11,1.3,1.8s.48,1.46.5,2.29h-2.63c-.08-1.08-.47-1.97-1.16-2.66-.37-.33-.81-.58-1.33-.75-.52-.17-1.09-.26-1.73-.26-1,0-1.85.22-2.55.66-.7.44-1.24,1.05-1.6,1.85-.37.79-.55,1.84-.55,3.15s.18,2.33.55,3.15c.37.77.9,1.38,1.6,1.82s1.55.66,2.55.66c.65,0,1.24-.09,1.76-.26.52-.17.95-.42,1.3-.75.35-.31.62-.68.81-1.13.19-.45.3-.94.32-1.47h2.66c-.1,1.69-.69,3.05-1.77,4.07-.61.55-1.35.97-2.22,1.25-.87.28-1.82.43-2.86.43-1.57,0-2.92-.33-4.07-.99Z"/>
      <path d="M105.57,109.5l-6.76-7.43v7.43h-2.45v-21.58h2.45v12.5l6.02-5.78h3.21l-6.94,6.57,7.7,8.28h-3.24Z"/>
    </g>
  </g>
</svg>